<svg width="66" height="13" viewBox="0 0 66 13" fill="none" xmlns="http://www.w3.org/2000/svg">
<path d="M0.4325 1.155H7.19L7.1825 2.37H1.8575V5.955H6.6425V7.155H1.8575V12H0.4325V1.155ZM9.05375 12V4.245H10.3738V5.7375C10.5038 5.3675 10.6863 5.0625 10.9213 4.8225C11.1563 4.5775 11.4238 4.395 11.7238 4.275C12.0288 4.155 12.3438 4.095 12.6688 4.095C12.7838 4.095 12.8963 4.1025 13.0063 4.1175C13.1163 4.1325 13.2013 4.1575 13.2613 4.1925V5.535C13.1863 5.5 13.0888 5.4775 12.9688 5.4675C12.8538 5.4525 12.7563 5.445 12.6763 5.445C12.3663 5.425 12.0763 5.445 11.8063 5.505C11.5363 5.56 11.2988 5.6575 11.0938 5.7975C10.8888 5.9375 10.7263 6.1225 10.6063 6.3525C10.4913 6.5775 10.4338 6.8525 10.4338 7.1775V12H9.05375ZM15.698 8.445C15.698 8.935 15.778 9.38 15.938 9.78C16.103 10.175 16.3505 10.49 16.6805 10.725C17.0155 10.96 17.433 11.0775 17.933 11.0775C18.428 11.0775 18.853 10.9625 19.208 10.7325C19.568 10.5025 19.798 10.17 19.898 9.735H21.2105C21.1155 10.26 20.9055 10.7025 20.5805 11.0625C20.2555 11.4225 19.863 11.695 19.403 11.88C18.943 12.06 18.463 12.15 17.963 12.15C17.238 12.15 16.6005 11.9925 16.0505 11.6775C15.5005 11.3625 15.0705 10.91 14.7605 10.32C14.4505 9.73 14.2955 9.0225 14.2955 8.1975C14.2955 7.3825 14.4355 6.6675 14.7155 6.0525C14.9955 5.4375 15.4005 4.9575 15.9305 4.6125C16.4655 4.2675 17.108 4.095 17.858 4.095C18.588 4.095 19.2055 4.2525 19.7105 4.5675C20.2155 4.8825 20.598 5.3275 20.858 5.9025C21.123 6.4725 21.2555 7.15 21.2555 7.935V8.445H15.698ZM15.7055 7.5075H19.9205C19.9205 7.0625 19.8455 6.6625 19.6955 6.3075C19.5455 5.9475 19.3155 5.665 19.0055 5.46C18.7005 5.25 18.3155 5.145 17.8505 5.145C17.3655 5.145 16.963 5.2625 16.643 5.4975C16.328 5.7275 16.0905 6.025 15.9305 6.39C15.7755 6.75 15.7005 7.1225 15.7055 7.5075ZM24.1502 8.445C24.1502 8.935 24.2302 9.38 24.3902 9.78C24.5552 10.175 24.8027 10.49 25.1327 10.725C25.4677 10.96 25.8852 11.0775 26.3852 11.0775C26.8802 11.0775 27.3052 10.9625 27.6602 10.7325C28.0202 10.5025 28.2502 10.17 28.3502 9.735H29.6627C29.5677 10.26 29.3577 10.7025 29.0327 11.0625C28.7077 11.4225 28.3152 11.695 27.8552 11.88C27.3952 12.06 26.9152 12.15 26.4152 12.15C25.6902 12.15 25.0527 11.9925 24.5027 11.6775C23.9527 11.3625 23.5227 10.91 23.2127 10.32C22.9027 9.73 22.7477 9.0225 22.7477 8.1975C22.7477 7.3825 22.8877 6.6675 23.1677 6.0525C23.4477 5.4375 23.8527 4.9575 24.3827 4.6125C24.9177 4.2675 25.5602 4.095 26.3102 4.095C27.0402 4.095 27.6577 4.2525 28.1627 4.5675C28.6677 4.8825 29.0502 5.3275 29.3102 5.9025C29.5752 6.4725 29.7077 7.15 29.7077 7.935V8.445H24.1502ZM24.1577 7.5075H28.3727C28.3727 7.0625 28.2977 6.6625 28.1477 6.3075C27.9977 5.9475 27.7677 5.665 27.4577 5.46C27.1527 5.25 26.7677 5.145 26.3027 5.145C25.8177 5.145 25.4152 5.2625 25.0952 5.4975C24.7802 5.7275 24.5427 6.025 24.3827 6.39C24.2277 6.75 24.1527 7.1225 24.1577 7.5075ZM35.3033 5.2575H33.5558V10.08C33.5558 10.355 33.5833 10.5575 33.6383 10.6875C33.6983 10.8125 33.7958 10.8925 33.9308 10.9275C34.0708 10.9625 34.2608 10.98 34.5008 10.98H35.3483V11.91C35.2533 11.945 35.1083 11.975 34.9133 12C34.7233 12.025 34.4858 12.0375 34.2008 12.0375C33.6658 12.0375 33.2508 11.965 32.9558 11.82C32.6608 11.675 32.4533 11.46 32.3333 11.175C32.2183 10.89 32.1608 10.54 32.1608 10.125V5.2575H30.9008V4.245H32.1983L32.5358 1.9875H33.5558V4.2375H35.3033V5.2575ZM37.2959 12V0.855H38.6459V5.385C38.7759 5.17 38.9509 4.97 39.1709 4.785C39.3909 4.595 39.6584 4.4425 39.9734 4.3275C40.2884 4.2075 40.6534 4.1475 41.0684 4.1475C41.5734 4.1475 42.0309 4.2425 42.4409 4.4325C42.8509 4.6175 43.1759 4.8825 43.4159 5.2275C43.6559 5.5725 43.7759 5.9825 43.7759 6.4575V12H42.3884V6.735C42.3884 6.27 42.2284 5.9125 41.9084 5.6625C41.5934 5.4075 41.1809 5.28 40.6709 5.28C40.3259 5.28 40.0009 5.3375 39.6959 5.4525C39.3909 5.5625 39.1434 5.7325 38.9534 5.9625C38.7684 6.1875 38.6759 6.475 38.6759 6.825V12H37.2959ZM47.4385 4.245V12H46.096V4.245H47.4385ZM47.4685 1.1625V2.6025H46.051V1.1625H47.4685ZM49.9668 12V4.245H51.3093V5.37C51.4343 5.155 51.6068 4.9525 51.8268 4.7625C52.0518 4.5725 52.3218 4.42 52.6368 4.305C52.9568 4.19 53.3243 4.1325 53.7393 4.1325C54.2293 4.1325 54.6793 4.23 55.0893 4.425C55.5043 4.62 55.8343 4.925 56.0793 5.34C56.3293 5.75 56.4543 6.28 56.4543 6.93V12H55.0668V7.065C55.0668 6.46 54.9068 6.0125 54.5868 5.7225C54.2718 5.4275 53.8618 5.28 53.3568 5.28C53.0068 5.28 52.6793 5.3375 52.3743 5.4525C52.0693 5.5625 51.8218 5.7325 51.6318 5.9625C51.4418 6.1875 51.3468 6.4725 51.3468 6.8175V12H49.9668ZM65.4341 12H63.9641L61.5341 8.1075L60.0041 9.69V12H58.6241V0.855H60.0041V8.1225L63.6491 4.245H65.2391L62.4416 7.2L65.4341 12Z" fill="#355362" fill-opacity="0.8"/>
</svg>
